<svg width="900" height="900" viewBox="0 0 900 900" fill="none" xmlns="http://www.w3.org/2000/svg">
  <rect width="900" height="900" rx="36" fill="#081321"/>
  <circle cx="670" cy="240" r="170" fill="#57C4FF" fill-opacity="0.14"/>
  <circle cx="250" cy="650" r="170" fill="#E6A758" fill-opacity="0.14"/>
  <path d="M144 625C219 557 276 520 352 520C426 520 460 582 522 582C594 582 637 476 718 476" stroke="#F0C27A" stroke-width="9" stroke-linecap="round"/>
  <path d="M138 706C218 641 293 610 386 610C469 610 513 670 577 670C651 670 705 584 775 584" stroke="#63CFFF" stroke-width="9" stroke-linecap="round"/>
  <path d="M420 140V760" stroke="#EAF3FF" stroke-opacity="0.12" stroke-width="2"/>
  <path d="M478 140V760" stroke="#EAF3FF" stroke-opacity="0.12" stroke-width="2"/>
  <path d="M536 140V760" stroke="#EAF3FF" stroke-opacity="0.12" stroke-width="2"/>
  <path d="M594 140V760" stroke="#EAF3FF" stroke-opacity="0.12" stroke-width="2"/>
  <ellipse cx="503" cy="262" rx="54" ry="38" fill="#F7FBFF" fill-opacity="0.92"/>
  <path d="M552 266L552 514C552 580 520 618 460 640" stroke="#F7FBFF" stroke-width="11" stroke-linecap="round"/>
  <ellipse cx="444" cy="664" rx="52" ry="36" fill="#F7FBFF" fill-opacity="0.92"/>
  <text x="108" y="160" fill="#EAF3FF" font-family="Inter, Arial, sans-serif" font-size="40" font-weight="700">Jazz as systems thinking</text>
  <text x="108" y="214" fill="#BFD0EA" font-family="Inter, Arial, sans-serif" font-size="26">pocket • interplay • timing • structure</text>
</svg>
