<svg width="640" height="480" viewBox="0 0 640 480" fill="none" xmlns="http://www.w3.org/2000/svg">
  <rect width="640" height="480" rx="28" fill="url(#bg)"/>
  <circle cx="121" cy="127" r="84" fill="url(#pulse)" opacity="0.65"/>
  <circle cx="510" cy="360" r="118" fill="url(#pulse2)" opacity="0.55"/>
  <path d="M112 359C171 282 230 240 285 231C340 222 366 266 415 261C454 257 485 223 535 156" stroke="#2E7BE7" stroke-width="7" stroke-linecap="round"/>
  <path d="M92 316C140 250 208 198 267 193C334 187 366 231 420 228C478 225 525 171 559 113" stroke="#6BB9FF" stroke-width="5" stroke-linecap="round" opacity="0.95"/>
  <path d="M132 396C184 339 250 301 309 296C372 291 415 317 462 301C502 287 526 248 560 210" stroke="#8DE1FF" stroke-width="4" stroke-linecap="round" opacity="0.9"/>
  <circle cx="148" cy="162" r="9" fill="#2E7BE7"/>
  <circle cx="177" cy="149" r="7" fill="#6BB9FF"/>
  <circle cx="203" cy="136" r="5" fill="#8DE1FF"/>
  <circle cx="432" cy="149" r="9" fill="#2E7BE7"/>
  <circle cx="466" cy="128" r="7" fill="#6BB9FF"/>
  <circle cx="500" cy="105" r="5" fill="#8DE1FF"/>
  <defs>
    <linearGradient id="bg" x1="52" y1="38" x2="585" y2="432" gradientUnits="userSpaceOnUse">
      <stop stop-color="#FCFEFF"/>
      <stop offset="1" stop-color="#EEF6FF"/>
    </linearGradient>
    <radialGradient id="pulse" cx="0" cy="0" r="1" gradientUnits="userSpaceOnUse" gradientTransform="translate(121 127) rotate(90) scale(84)">
      <stop stop-color="#6BB9FF" stop-opacity="0.65"/>
      <stop offset="1" stop-color="#6BB9FF" stop-opacity="0"/>
    </radialGradient>
    <radialGradient id="pulse2" cx="0" cy="0" r="1" gradientUnits="userSpaceOnUse" gradientTransform="translate(510 360) rotate(90) scale(118)">
      <stop stop-color="#8DE1FF" stop-opacity="0.55"/>
      <stop offset="1" stop-color="#8DE1FF" stop-opacity="0"/>
    </radialGradient>
  </defs>
</svg>
